<svg id="Laag_1" data-name="Laag 1" xmlns="http://www.w3.org/2000/svg" viewBox="0 0 458.59 582.49"><title>rocket</title><path d="M1076,689.26a186.08,186.08,0,0,0,12.38-45.4c39.21,22.7,68.1,55.72,84.61,92.87,37.15-82.55,8.25-173.35-70.17-227,0-128-45.4-260-132.08-350.84-6.19-6.19-14.45-6.19-20.64,0C863.42,249.69,818,381.77,816,507.65c-74.29,53.66-107.31,144.46-70.17,227,16.51-37.15,45.4-70.17,84.61-92.87,4.13,16.51,8.25,33,14.45,47.47,2.06,6.19,6.19,10.32,14.45,10.32h206.37C1069.79,699.58,1073.92,695.45,1076,689.26ZM902.63,437.49c0-33,24.76-57.78,57.78-57.78s57.78,24.76,57.78,57.78-24.76,57.78-57.78,57.78S902.63,470.51,902.63,437.49Z" transform="translate(-730.45 -154.24)" fill="#343a4c"/></svg>